<?xml version="1.0" standalone="no"?><!DOCTYPE svg PUBLIC "-//W3C//DTD SVG 1.1//EN" "http://www.w3.org/Graphics/SVG/1.1/DTD/svg11.dtd"><svg t="1532080351914" class="icon" style="" viewBox="0 0 1024 1024" version="1.1" xmlns="http://www.w3.org/2000/svg" p-id="1914" xmlns:xlink="http://www.w3.org/1999/xlink" width="200" height="200"><defs><style type="text/css"></style></defs><path d="M930 824.7H97.8c-14.5 0-26.4 11.9-26.4 26.4 0 14.5 11.9 26.4 26.4 26.4H930c14.5 0 26.4-11.9 26.4-26.4 0-14.5-11.9-26.4-26.4-26.4zM73.1 552.3c9 11.4 25.7 13.3 37.1 4.2l311.1-247.2 171.3 106c4.7 3.6 10.4 5.5 16.1 5.6h1c6.7-0.2 13.3-2.9 18.1-7.7l322.7-256.4c11.4-9 13.3-25.7 4.2-37.1-9-11.4-25.7-13.3-37.1-4.2L607 362.2 433.4 254.7c-7.7-4.8-17-5.1-24.8-1.6-2.1 0.9-4.2 2.1-6.1 3.6L77.3 515.2c-11.4 9-13.3 25.7-4.2 37.1zM166.1 560.2c-14.5 0-26.4 11.9-26.4 26.4V741c0 14.5 11.9 26.4 26.4 26.4 14.5 0 26.4-11.9 26.4-26.4V586.6c0-14.6-11.9-26.4-26.4-26.4zM340 516.8c-14.5 0-26.4 11.9-26.4 26.4V741c0 14.5 11.9 26.4 26.4 26.4s26.4-11.9 26.4-26.4V543.2c0-14.5-11.9-26.4-26.4-26.4zM513.9 464c-14.5 0-26.4 11.9-26.4 26.4V741c0 14.5 11.9 26.4 26.4 26.4 14.5 0 26.4-11.9 26.4-26.4V490.4c0-14.5-11.9-26.4-26.4-26.4zM688.9 489.8h-2.3c-13.9 0-25.3 11.4-25.3 25.3v227.1c0 13.9 11.4 25.3 25.3 25.3h2.3c13.9 0 25.3-11.4 25.3-25.3V515.1c0-13.9-11.4-25.3-25.3-25.3zM861.7 314.6c-14.5 0-26.4 11.9-26.4 26.4v400c0 14.5 11.9 26.4 26.4 26.4 14.5 0 26.4-11.9 26.4-26.4V341c0-14.5-11.9-26.4-26.4-26.4z" p-id="1915"></path></svg>