<?xml version="1.0" standalone="no"?><!DOCTYPE svg PUBLIC "-//W3C//DTD SVG 1.1//EN" "http://www.w3.org/Graphics/SVG/1.1/DTD/svg11.dtd"><svg t="1533026440866" class="icon" style="" viewBox="0 0 1331 1024" version="1.1" xmlns="http://www.w3.org/2000/svg" p-id="2600" xmlns:xlink="http://www.w3.org/1999/xlink" width="259.9609375" height="200"><defs><style type="text/css"></style></defs><path d="M665.6 1023.0784C298.2912 1023.0784 37.5808 694.5792 0.6144 512 37.4784 329.5232 298.2912 0.9216 665.6 0.9216c367.3088 0 628.0192 328.6016 664.9856 511.0784-36.864 182.5792-297.6768 511.0784-664.9856 511.0784z m0-912.5888C375.6032 110.4896 159.744 363.8272 114.688 512c45.056 148.1728 260.9152 401.6128 550.912 401.6128S1171.456 660.1728 1216.512 512c-45.056-148.1728-260.9152-401.5104-550.912-401.5104z m0 620.544C543.1296 731.136 443.904 633.0368 443.904 512s99.328-219.0336 221.696-219.0336c122.4704 0 221.696 97.9968 221.696 219.0336S787.968 731.136 665.6 731.136z m0-328.6016c-61.1328 0-110.7968 49.152-110.7968 109.568 0 60.416 49.664 109.568 110.7968 109.568 61.1328 0 110.7968-49.152 110.7968-109.568 0-60.416-49.664-109.568-110.7968-109.568z" p-id="2601"></path></svg>