<?xml version="1.0" standalone="no"?><!DOCTYPE svg PUBLIC "-//W3C//DTD SVG 1.1//EN" "http://www.w3.org/Graphics/SVG/1.1/DTD/svg11.dtd"><svg t="1533115852833" class="icon" style="" viewBox="0 0 1024 1024" version="1.1" xmlns="http://www.w3.org/2000/svg" p-id="4693" xmlns:xlink="http://www.w3.org/1999/xlink" width="200" height="200"><defs><style type="text/css"></style></defs><path d="M504.471536 1024c-173.845397 0-285.723463-35.030841-342.019631-107.093087-41.808198-53.515844-51.429323-127.059837-28.599362-218.5956 45.1145-180.905186 116.207675-384.234081 271.369547-445.109544L257.154801 43.733037l39.192627-5.461385c14.526855-2.026146 25.6461-6.383384 32.156374-12.603039 16.135492-15.368012 40.251749-24.169469 66.191538-24.169469 25.935696 0 50.051953 8.79941 66.168002 24.137747 9.640568 9.221012 25.481348 14.699794 42.420135 14.699794 16.911158 0 32.772404-5.491061 42.420135-14.687514 16.056698-15.340383 40.168862-24.150026 66.128093-24.150026 25.986861 0 50.115398 8.806573 66.202795 24.161283 6.361895 6.069229 17.300015 10.396791 31.630395 12.515035l38.788421 5.731538L600.963171 252.54276c57.727773 21.851681 109.419062 63.920822 152.49002 124.726699 56.233746 79.385025 98.386798 190.948937 121.910561 322.637188 18.61394 104.289228 7.17747 176.869267-35.987632 228.41627C784.720312 993.59655 678.30056 1024 504.471536 1024zM504.46335 283.248086c-150.368706 0-250.249531 131.605364-323.852876 426.726871-19.320021 77.474512-12.840446 135.461181 19.817348 177.261193 45.914726 58.770522 148.207483 88.570221 304.043714 88.570221 158.475338 0 253.15572-24.920576 297.956066-78.42414 33.305547-39.776935 41.408085-99.833753 25.496697-189.007725C805.63976 583.628364 766.286474 478.763015 714.128557 405.127947 656.843876 324.251965 586.303286 283.248086 504.46335 283.248086zM504.45107 189.652408c23.829731 0.017396 48.455595 3.317559 74.843592 10.05603l87.750553-124.129088c-8.562003-4.042059-16.005532-9.06547-22.280446-15.050788-7.110955-6.786567-19.417235-10.836813-32.933063-10.836813-13.480013 0-25.76378 4.045129-32.858362 10.822486-18.688641 17.811668-46.267766 28.015054-75.689866 28.015054-29.481452 0-57.068763-10.214642-75.689866-28.024264-7.094582-6.755868-19.410072-10.813277-32.897248-10.813277s-25.794479 4.055362-32.92897 10.848069c-6.42841 6.14393-14.068414 11.273764-22.853497 15.361873l87.220481 123.391285C451.548186 192.891172 477.81748 189.652408 504.45107 189.652408z" p-id="4694"></path><path d="M662.482293 439.938778c0 1.322112 0 3.967358-1.322112 6.624884l-68.240197 135.14498 29.144784 0c9.937326 0 18.540262 8.602935 18.540262 19.182898l0 27.130917c0 10.592242-8.602935 19.195178-18.540262 19.195178l-62.270229 0-15.907295 31.220049 78.165244 0c9.937326 0 18.540262 8.590656 18.540262 19.183921l0 26.463722c0 10.592242-8.602935 19.195178-18.540262 19.195178l-78.165244 0 0 133.822868c0 9.925047-8.615215 18.540262-19.195178 18.540262l-43.680848 0c-10.592242 0-19.195178-8.615215-19.195178-18.540262L461.816041 743.280504l-78.177524 0c-9.937326 0-18.552541-8.602935-18.552541-19.195178L365.085976 697.621605c0-10.592242 8.615215-19.182898 18.552541-19.182898l78.177524 0-15.895015-31.220049-62.282508 0c-9.937326 0-18.552541-8.602935-18.552541-19.195178l0-27.130917c0-10.580986 8.615215-19.182898 18.552541-19.182898l29.157064 0L344.555383 446.563662c-1.322112-2.657526-1.322112-5.302773-1.322112-6.624884 0-7.959276 5.290493-13.905708 14.572904-13.905708l42.395576 0c10.604522 0 15.240099 3.300162 23.855314 20.530592l78.796624 152.35085 78.796624-152.35085c8.615215-17.229406 13.249769-20.530592 23.843034-20.530592l42.406832 0C657.168264 426.03307 662.482293 431.978479 662.482293 439.938778" p-id="4695"></path></svg>