<?xml version="1.0" standalone="no"?><!DOCTYPE svg PUBLIC "-//W3C//DTD SVG 1.1//EN" "http://www.w3.org/Graphics/SVG/1.1/DTD/svg11.dtd"><svg t="1532081782010" class="icon" style="" viewBox="0 0 1024 1024" version="1.1" xmlns="http://www.w3.org/2000/svg" p-id="15683" xmlns:xlink="http://www.w3.org/1999/xlink" width="200" height="200"><defs><style type="text/css"></style></defs><path d="M512.165838 101.567813c55.564738 0 109.41415 10.859395 160.052699 32.278478 48.961186 20.708777 92.954224 50.376804 130.756308 88.178888 37.802084 37.802084 67.469112 81.795122 88.179887 130.756308 21.417085 50.638548 32.278478 104.487961 32.278478 160.052698 0 55.563739-10.859395 109.41415-32.278478 160.0517-20.708777 48.961186-50.377803 92.954224-88.179887 130.756308s-81.795122 67.469112-130.756308 88.179887C621.580987 913.238166 567.730576 924.097561 512.165838 924.097561c-55.563739 0-109.41415-10.859395-160.051699-32.278478-48.961186-20.708777-92.953225-50.377803-130.75531-88.179887-37.802084-37.802084-67.469112-81.795122-88.178888-130.756308C111.760859 622.246338 100.901463 568.396925 100.901463 512.833186c0-55.564738 10.859395-109.41415 32.278478-160.052698 20.708777-48.961186 50.376804-92.953225 88.178888-130.756308 37.802084-37.802084 81.795122-67.469112 130.75531-88.178888 50.638548-21.418084 104.487961-32.277479 160.051699-32.277479m0-99.902439C229.856531 1.665374 0.999024 230.52288 0.999024 512.833186 0.999024 795.142494 229.856531 1024 512.165838 1024c282.310306 0 511.167813-228.857506 511.167813-511.166814 0-282.310306-228.857506-511.167813-511.167813-511.167812z" p-id="15684"></path><path d="M685.910166 559.045058H345.76334c-27.58706 0-49.95122-22.36416-49.951219-49.95122s22.36416-49.95122 49.951219-49.951219H685.910166c27.58706 0 49.95122 22.36416 49.951219 49.951219s-22.36416 49.95122-49.951219 49.95122zM685.910166 714.88487H345.76334c-27.58706 0-49.95122-22.36416-49.951219-49.951219s22.36416-49.95122 49.951219-49.95122H685.910166c27.58706 0 49.95122 22.36416 49.951219 49.95122s-22.36416 49.95122-49.951219 49.951219z" p-id="15685"></path><path d="M511.341643 868.882482c-27.58706 0-49.95122-22.36416-49.95122-49.95122V436.826412c0-27.58706 22.36416-49.95122 49.95122-49.95122s49.95122 22.36416 49.951219 49.95122v382.105849c0 27.58706-22.36416 49.95022-49.951219 49.950221z" p-id="15686"></path><path d="M576.45106 448.546966l-70.641015 70.641014L301.016039 314.391977l70.641015-70.641015z" p-id="15687"></path><path d="M505.890966 519.875309l-70.640016-70.640015 211.792172-211.791173 70.640016 70.640016z" p-id="15688"></path><path d="M680.689264 274.378053m-49.951219 0a49.95122 49.95122 0 1 0 99.902439 0 49.95122 49.95122 0 1 0-99.902439 0Z" p-id="15689"></path><path d="M339.318634 281.37522m-49.951219 0a49.95122 49.95122 0 1 0 99.902439 0 49.95122 49.95122 0 1 0-99.902439 0Z" p-id="15690"></path></svg>